<?xml version="1.0" encoding="utf-8"?>
<!-- Generator: Adobe Illustrator 25.3.1, SVG Export Plug-In . SVG Version: 6.00 Build 0)  -->
<svg version="1.1" id="图层_1" xmlns="http://www.w3.org/2000/svg" xmlns:xlink="http://www.w3.org/1999/xlink" x="0px" y="0px"
	 viewBox="0 0 1920 1080" style="enable-background:new 0 0 1920 1080;" xml:space="preserve">
<style type="text/css">
	.st0{fill:#6BCC03;}
	.st1{fill:#02A9F1;}
</style>
<path class="st0" d="M1037.53,520.5v-25.9c2.16-23.75,6.48-45.33,12.95-66.92c17.27-56.13,45.33-103.62,84.19-144.63
	c53.97-58.28,118.73-94.98,189.96-118.73c41.01-12.95,82.03-19.43,123.04-21.59c34.54-2.16,66.92,0,101.46,6.48
	c28.06,4.32,53.97,10.79,82.03,21.59c66.92,23.75,125.2,60.44,174.85,112.25c6.48,6.48,10.79,12.95,17.27,19.43
	c-2.16,0-2.16,2.16-4.32,2.16c-17.27,8.63-34.54,17.27-51.81,23.75c-120.89,56.13-241.77,112.25-362.66,166.22
	c-23.75,10.79-47.49,8.63-69.08-4.32c-17.27-10.79-32.38-21.59-49.65-32.38c-10.79-8.63-21.59-15.11-34.54-23.75
	c-10.79-6.48-17.27-2.16-17.27,10.79v2.16c2.16,10.79,4.32,21.59,8.63,32.38c21.59,51.81,43.17,101.46,64.76,153.27
	c6.48,15.11,17.27,21.59,30.22,19.43c8.63,0,17.27-2.16,23.75-6.48c25.9-12.95,49.65-28.06,73.39-43.17
	c131.68-77.71,261.2-155.42,392.88-233.14c8.63-6.48,19.43-10.79,28.06-17.27c0,2.16,2.16,2.16,2.16,4.32
	c4.32,8.63,8.63,15.11,10.79,23.75c23.75,51.81,34.54,105.77,30.22,161.9c-2.16,23.75-6.48,47.49-12.95,71.24
	c-15.11,51.81-41.01,97.14-77.71,138.15c-43.17,47.49-97.14,84.19-155.42,107.93c-34.54,12.95-69.08,23.75-103.62,30.22
	c-23.75,4.32-47.49,6.48-69.08,6.48h-38.86c-17.27-2.16-34.54-2.16-49.65-4.32c-25.9-4.32-51.81-10.79-75.55-19.43h-6.48
	c-10.79,6.48-19.43,12.95-30.22,19.43c-23.75,15.11-45.33,28.06-69.08,41.01c-4.32,2.16-10.79,4.32-15.11,4.32
	c-4.32,0-8.63-2.16-8.63-8.63c0-4.32,0-10.79,2.16-15.11c4.32-32.38,10.79-62.6,17.27-94.98c0-4.32,0-6.48-4.32-8.63
	c-12.95-10.79-25.9-19.43-38.86-32.38c-43.17-38.86-77.71-86.35-99.3-140.31c-8.63-23.75-15.11-49.65-19.43-75.55
	c-2.16-10.79-2.16-21.59-2.16-34.54C1037.53,526.97,1037.53,524.81,1037.53,520.5z"/>
<path class="st1" d="M864.7,687.89l-264.16-88.83c0,0,20.3-30.39,41.97-89.97c21.67-59.58,24.78-92.3,24.78-92.3l-171-1.41v-58.4
	l207.08-1.46v-41.29H496.25v-93.98H394.83v93.99H201.61v41.29l193.22-1.37v62.64H239.85v32.71h319c0,0-3.51,26.55-15.74,59.58
	c-12.23,33.03-24.82,61.96-24.82,61.96s-149.78-52.42-228.71-52.42s-174.92,31.71-184.23,123.73
	c-9.26,91.98,44.71,141.8,120.76,160.14c76.06,18.43,146.27-0.18,207.4-30.11c61.14-29.88,121.13-97.82,121.13-97.82l307.86,149.51
	c-12.56,72.94-75.86,126.22-149.87,126.15H195.55c-83.91,0.08-151.98-67.87-152.06-151.78V281.07
	C43.41,197.15,111.37,129.07,195.27,129h517.36c83.91-0.08,151.99,67.88,152.06,151.79L864.7,687.89L864.7,687.89z M479.71,636.42
	c0,0-96.1,121.32-209.34,121.32c-113.28,0-137.06-57.65-137.06-99.11c0-41.41,23.55-86.46,119.93-92.98
	c96.33-6.5,226.52,70.76,226.52,70.76L479.71,636.42L479.71,636.42z"/>
</svg>
